<svg xmlns="http://www.w3.org/2000/svg" version="1.1" xmlns:xlink="http://www.w3.org/1999/xlink" xmlns:svgjs="http://svgjs.com/svgjs" width="1440" height="560" preserveAspectRatio="none" viewBox="0 0 1440 560"><g mask="url(&quot;#SvgjsMask4027&quot;)" fill="none"><rect width="1440" height="560" x="0" y="0" fill="url(#SvgjsRadialGradient4028)"></rect><path d="M843 130L842 382" stroke-width="10" stroke="url(#SvgjsLinearGradient4029)" stroke-linecap="round" class="Up"></path><path d="M92 91L91 -306" stroke-width="6" stroke="url(#SvgjsLinearGradient4030)" stroke-linecap="round" class="Down"></path><path d="M524 540L523 316" stroke-width="6" stroke="url(#SvgjsLinearGradient4029)" stroke-linecap="round" class="Up"></path><path d="M1425 417L1424 784" stroke-width="6" stroke="url(#SvgjsLinearGradient4030)" stroke-linecap="round" class="Down"></path><path d="M1007 5L1006 -308" stroke-width="8" stroke="url(#SvgjsLinearGradient4030)" stroke-linecap="round" class="Down"></path><path d="M266 177L265 -242" stroke-width="8" stroke="url(#SvgjsLinearGradient4029)" stroke-linecap="round" class="Up"></path><path d="M1150 554L1149 772" stroke-width="10" stroke="url(#SvgjsLinearGradient4030)" stroke-linecap="round" class="Down"></path><path d="M321 164L320 -41" stroke-width="6" stroke="url(#SvgjsLinearGradient4030)" stroke-linecap="round" class="Down"></path><path d="M109 130L108 347" stroke-width="6" stroke="url(#SvgjsLinearGradient4029)" stroke-linecap="round" class="Up"></path><path d="M1239 363L1238 106" stroke-width="10" stroke="url(#SvgjsLinearGradient4029)" stroke-linecap="round" class="Up"></path><path d="M790 115L789 -188" stroke-width="10" stroke="url(#SvgjsLinearGradient4030)" stroke-linecap="round" class="Down"></path><path d="M807 84L806 -304" stroke-width="6" stroke="url(#SvgjsLinearGradient4029)" stroke-linecap="round" class="Up"></path><path d="M453 470L452 221" stroke-width="10" stroke="url(#SvgjsLinearGradient4029)" stroke-linecap="round" class="Up"></path><path d="M423 340L422 -70" stroke-width="6" stroke="url(#SvgjsLinearGradient4030)" stroke-linecap="round" class="Down"></path><path d="M568 24L567 -349" stroke-width="10" stroke="url(#SvgjsLinearGradient4030)" stroke-linecap="round" class="Down"></path><path d="M805 421L804 667" stroke-width="8" stroke="url(#SvgjsLinearGradient4030)" stroke-linecap="round" class="Down"></path><path d="M1394 163L1393 -79" stroke-width="10" stroke="url(#SvgjsLinearGradient4030)" stroke-linecap="round" class="Down"></path><path d="M487 551L486 362" stroke-width="8" stroke="url(#SvgjsLinearGradient4030)" stroke-linecap="round" class="Down"></path><path d="M73 206L72 -171" stroke-width="6" stroke="url(#SvgjsLinearGradient4030)" stroke-linecap="round" class="Down"></path><path d="M1266 536L1265 193" stroke-width="10" stroke="url(#SvgjsLinearGradient4030)" stroke-linecap="round" class="Down"></path><path d="M1229 312L1228 479" stroke-width="8" stroke="url(#SvgjsLinearGradient4030)" stroke-linecap="round" class="Down"></path><path d="M1430 305L1429 63" stroke-width="8" stroke="url(#SvgjsLinearGradient4030)" stroke-linecap="round" class="Down"></path><path d="M397 554L396 184" stroke-width="10" stroke="url(#SvgjsLinearGradient4029)" stroke-linecap="round" class="Up"></path><path d="M1280 242L1279 618" stroke-width="10" stroke="url(#SvgjsLinearGradient4030)" stroke-linecap="round" class="Down"></path><path d="M218 509L217 672" stroke-width="8" stroke="url(#SvgjsLinearGradient4030)" stroke-linecap="round" class="Down"></path><path d="M1071 420L1070 66" stroke-width="6" stroke="url(#SvgjsLinearGradient4030)" stroke-linecap="round" class="Down"></path><path d="M503 4L502 -212" stroke-width="10" stroke="url(#SvgjsLinearGradient4029)" stroke-linecap="round" class="Up"></path><path d="M525 352L524 -37" stroke-width="6" stroke="url(#SvgjsLinearGradient4030)" stroke-linecap="round" class="Down"></path><path d="M728 389L727 -4" stroke-width="10" stroke="url(#SvgjsLinearGradient4029)" stroke-linecap="round" class="Up"></path><path d="M1126 108L1125 301" stroke-width="6" stroke="url(#SvgjsLinearGradient4030)" stroke-linecap="round" class="Down"></path><path d="M134 356L133 553" stroke-width="8" stroke="url(#SvgjsLinearGradient4029)" stroke-linecap="round" class="Up"></path><path d="M957 511L956 317" stroke-width="10" stroke="url(#SvgjsLinearGradient4030)" stroke-linecap="round" class="Down"></path><path d="M1427 462L1426 45" stroke-width="6" stroke="url(#SvgjsLinearGradient4030)" stroke-linecap="round" class="Down"></path><path d="M307 528L306 116" stroke-width="8" stroke="url(#SvgjsLinearGradient4030)" stroke-linecap="round" class="Down"></path><path d="M863 191L862 569" stroke-width="10" stroke="url(#SvgjsLinearGradient4029)" stroke-linecap="round" class="Up"></path><path d="M29 412L28 214" stroke-width="8" stroke="url(#SvgjsLinearGradient4030)" stroke-linecap="round" class="Down"></path></g><defs><mask id="SvgjsMask4027"><rect width="1440" height="560" fill="#ffffff"></rect></mask><radialGradient cx="50%" cy="50%" r="772.53" gradientUnits="userSpaceOnUse" id="SvgjsRadialGradient4028"><stop stop-color="rgba(0, 0, 0, 0.9)" offset="0.37"></stop><stop stop-color="rgba(0, 0, 0, 0.89)" offset="1"></stop></radialGradient><linearGradient x1="0%" y1="100%" x2="0%" y2="0%" id="SvgjsLinearGradient4029"><stop stop-color="rgba(28, 83, 142, 0)" offset="0"></stop><stop stop-color="#1c538e" offset="1"></stop></linearGradient><linearGradient x1="0%" y1="0%" x2="0%" y2="100%" id="SvgjsLinearGradient4030"><stop stop-color="rgba(28, 83, 142, 0)" offset="0"></stop><stop stop-color="#1c538e" offset="1"></stop></linearGradient></defs></svg>