<svg xmlns="http://www.w3.org/2000/svg" version="1.1" xmlns:xlink="http://www.w3.org/1999/xlink" xmlns:svgjs="http://svgjs.com/svgjs" width="1440" height="560" preserveAspectRatio="none" viewBox="0 0 1440 560"><g mask="url(&quot;#SvgjsMask1569&quot;)" fill="none"><rect width="1440" height="560" x="0" y="0" fill="url(#SvgjsRadialGradient1570)"></rect><path d="M1440 0L1122.42 0L1440 52.32z" fill="rgba(255, 255, 255, .1)"></path><path d="M1122.42 0L1440 52.32L1440 281.06L675.75 0z" fill="rgba(255, 255, 255, .075)"></path><path d="M675.75 0L1440 281.06L1440 322.3L503.49 0z" fill="rgba(255, 255, 255, .05)"></path><path d="M503.49 0L1440 322.3L1440 385.19L266.89 0z" fill="rgba(255, 255, 255, .025)"></path><path d="M0 560L89.05 560L0 430.66999999999996z" fill="rgba(0, 0, 0, .1)"></path><path d="M0 430.66999999999996L89.05 560L513.49 560L0 277.19999999999993z" fill="rgba(0, 0, 0, .075)"></path><path d="M0 277.2L513.49 560L520.69 560L0 213.66z" fill="rgba(0, 0, 0, .05)"></path><path d="M0 213.65999999999997L520.69 560L780.72 560L0 92.76999999999997z" fill="rgba(0, 0, 0, .025)"></path></g><defs><mask id="SvgjsMask1569"><rect width="1440" height="560" fill="#ffffff"></rect></mask><radialGradient cx="0%" cy="50%" r="1466.97" gradientUnits="userSpaceOnUse" id="SvgjsRadialGradient1570"><stop stop-color="#0e2a47" offset="0"></stop><stop stop-color="rgba(0, 0, 0, 0.98)" offset="1"></stop></radialGradient></defs></svg>